# xmcd
#
# Track frame offsets:
#	150
#	16594
#	30573
#	42158
#	56543
#	72305
#	85789
#	99888
#	112853
#	125637
#	147863
#	161815
#	174170
#	185250
#	199835
#	215660
#	227927
#	241577
#
# Disc length: 3401 seconds
#
# Revision: 0
# Processed by: cddbd v1.5.2PL0 Copyright (c) Steve Scherf et al.
# Submitted via: EasyCDDAExtractor 15.0.0.1
#
DISCID=e50d4712
DTITLE=Boni Rios - O mais quente do forro
DYEAR=1900
DGENRE=
TTITLE0=Bate papo na internet
TTITLE1=Marcas
TTITLE2=Perfume dividido
TTITLE3=Deus comigo
TTITLE4=Chega de me torturar
TTITLE5=Doce doce amor
TTITLE6=La vem a mare
TTITLE7=Ferias na india
TTITLE8=Nocaute
TTITLE9=Amigos moto boys
TTITLE10=O rico pobre
TTITLE11=Periquito da prima
TTITLE12=Eu voce e a praca
TTITLE13=Vem menina
TTITLE14=A forca do amor
TTITLE15=Pedaco de feitico
TTITLE16=Voce decide 
TTITLE17=Lingua de bom-bom
EXTD=
EXTT0=
EXTT1=
EXTT2=
EXTT3=
EXTT4=
EXTT5=
EXTT6=
EXTT7=
EXTT8=
EXTT9=
EXTT10=
EXTT11=
EXTT12=
EXTT13=
EXTT14=
EXTT15=
EXTT16=
EXTT17=
PLAYORDER=
